# xmcd
#
# Track frame offsets: 
#        150
#        15978
#        29142
#        40598
#        49205
#        60395
#        71637
#        80823
#        94574
#        105365
#        118085
#        131821
#        143332
#        154807
#        167294
#        178890
#        191086
#        204460
#        213254
#        222821
#        236698
#
# Disc length: 3323 seconds
#
# Revision: 0
# Processed by: cddbd v1.5.2PL0 Copyright (c) Steve Scherf et al.
# Submitted via: ExactAudioCopyFreeDBPlugin 1.0
#
DISCID=220cf915
DTITLE=Bo Diddley - The Indispensable Vol. 2 (1959-1962)
DYEAR=2013
DGENRE=R&B
TTITLE0=Mule Train
TTITLE1=Better Watch Yourself
TTITLE2=Prisoner of Love
TTITLE3=Gunslinger
TTITLE4=Sixteen Tons
TTITLE5=Whoa, Mule
TTITLE6=Cheyenne
TTITLE7=Ride on Josephine
TTITLE8=No More Lovin'
TTITLE9=Do What I Say
TTITLE10=Doing the Craw-Daddy
TTITLE11=Working Man
TTITLE12=Somewhere
TTITLE13=Can You Shymmy?
TTITLE14=Huckleberry Bush
TTITLE15=The Soup Maker
TTITLE16=Watusi Bounce
TTITLE17=Shank
TTITLE18=The Twister
TTITLE19=Love Is a Secret
TTITLE20=Cadillac (at recording speed)
EXTD=
EXTT0=
EXTT1=
EXTT2=
EXTT3=
EXTT4=
EXTT5=
EXTT6=
EXTT7=
EXTT8=
EXTT9=
EXTT10=
EXTT11=
EXTT12=
EXTT13=
EXTT14=
EXTT15=
EXTT16=
EXTT17=
EXTT18=
EXTT19=
EXTT20=
PLAYORDER=
